<svg width="640" height="440" viewBox="0 0 640 440" fill="none" xmlns="http://www.w3.org/2000/svg">
  <rect width="640" height="440" rx="32" fill="#FFFFFF"/>
  <rect x="38" y="38" width="564" height="364" rx="24" fill="#F6FAFD" stroke="#DCEFFB" stroke-width="4"/>
  <path d="M320 91c77 0 140 63 140 140s-63 140-140 140-140-63-140-140S243 91 320 91Z" fill="#D8F0EA"/>
  <path d="M245 231c24-42 52-63 84-63 45 0 74 35 66 82-7 43-42 65-86 65" stroke="#263241" stroke-width="18" stroke-linecap="round"/>
  <path d="M304 164c-15 67-14 112 4 151" stroke="#74AEE7" stroke-width="15" stroke-linecap="round"/>
  <path d="M377 129l34 39 48-24" stroke="#A89AEF" stroke-width="15" stroke-linecap="round" stroke-linejoin="round"/>
  <rect x="82" y="82" width="114" height="34" rx="17" fill="#FFFFFF"/>
  <rect x="444" y="332" width="114" height="34" rx="17" fill="#FFFFFF"/>
</svg>
