<svg width="640" height="440" viewBox="0 0 640 440" fill="none" xmlns="http://www.w3.org/2000/svg">
  <rect width="640" height="440" rx="32" fill="#FFFFFF"/>
  <rect x="38" y="38" width="564" height="364" rx="24" fill="#F8F6FF" stroke="#DAD5FB" stroke-width="4"/>
  <circle cx="320" cy="177" r="80" fill="#CFE8F9"/>
  <path d="M320 108c42 32 62 69 62 111" stroke="#A89AEF" stroke-width="15" stroke-linecap="round"/>
  <path d="M320 108c-42 32-62 69-62 111" stroke="#8FCFC0" stroke-width="15" stroke-linecap="round"/>
  <path d="M246 226c42-12 70 0 74 39 5-39 34-51 75-39" stroke="#74AEE7" stroke-width="15" stroke-linecap="round" stroke-linejoin="round"/>
  <rect x="138" y="296" width="364" height="22" rx="11" fill="#263241"/>
  <rect x="176" y="344" width="288" height="16" rx="8" fill="#A89AEF"/>
  <rect x="82" y="82" width="90" height="34" rx="17" fill="#FFFFFF"/>
  <rect x="468" y="82" width="90" height="34" rx="17" fill="#FFFFFF"/>
</svg>
