<svg width="1600" height="1000" viewBox="0 0 1600 1000" fill="none" xmlns="http://www.w3.org/2000/svg">
  <rect width="1600" height="1000" fill="#F6FAFD"/>
  <rect y="650" width="1600" height="350" fill="#EAF4FB"/>
  <circle cx="1308" cy="184" r="250" fill="#DAD5FB" opacity="0.65"/>
  <circle cx="225" cy="232" r="220" fill="#CFE8F9" opacity="0.75"/>
  <rect x="186" y="246" width="358" height="260" rx="34" fill="#FFFFFF" opacity="0.78"/>
  <rect x="238" y="301" width="254" height="151" rx="24" fill="#BFE1F5"/>
  <path d="M278 400c58-62 115-62 173 0" stroke="#74AEE7" stroke-width="14" stroke-linecap="round"/>
  <rect x="1032" y="262" width="304" height="344" rx="42" fill="#FFFFFF" opacity="0.86"/>
  <path d="M1088 462c32-82 88-122 168-122" stroke="#8FCFC0" stroke-width="18" stroke-linecap="round"/>
  <path d="M1257 341c1 84-35 141-110 171" stroke="#A89AEF" stroke-width="18" stroke-linecap="round"/>
  <rect x="522" y="535" width="381" height="152" rx="76" fill="#FFFFFF"/>
  <rect x="452" y="631" width="520" height="210" rx="50" fill="#5A7187"/>
  <rect x="534" y="703" width="153" height="138" rx="24" fill="#FFFFFF" opacity="0.18"/>
  <rect x="730" y="703" width="153" height="138" rx="24" fill="#FFFFFF" opacity="0.18"/>
  <rect x="1035" y="655" width="244" height="172" rx="34" fill="#FFFFFF"/>
  <rect x="1067" y="688" width="181" height="30" rx="15" fill="#DAD5FB"/>
  <rect x="1067" y="744" width="131" height="26" rx="13" fill="#CFE8F9"/>
  <rect x="104" y="735" width="272" height="58" rx="29" fill="#FFFFFF"/>
  <rect x="126" y="709" width="94" height="118" rx="47" fill="#8FCFC0"/>
  <rect x="254" y="690" width="70" height="137" rx="35" fill="#A89AEF"/>
  <path d="M713 526V307" stroke="#D3E6F3" stroke-width="22" stroke-linecap="round"/>
  <circle cx="713" cy="274" r="68" fill="#FFFFFF"/>
  <path d="M679 275h68M713 241v68" stroke="#74AEE7" stroke-width="16" stroke-linecap="round"/>
</svg>
